<svg width="48" height="48" viewBox="0 0 48 48" fill="none" xmlns="http://www.w3.org/2000/svg">
<g clip-path="url(#clip0_21_4)">
<path d="M46.7873 7.0722L25.246 46.1637C24.8013 46.9708 23.6586 46.9756 23.2072 46.1724L1.23885 7.07597C0.747045 6.20072 1.48453 5.14054 2.46184 5.31782L24.0261 9.22956C24.1637 9.25451 24.3045 9.25428 24.4421 9.22884L45.5554 5.32343C46.5295 5.14327 47.2704 6.19523 46.7873 7.0722Z" fill="url(#paint0_linear_21_4)"/>
<path d="M34.2984 0.18707L18.3572 3.35707C18.0952 3.40916 17.9012 3.6345 17.8854 3.90493L16.9048 20.7125C16.8817 21.1084 17.24 21.4156 17.6207 21.3265L22.0589 20.287C22.4742 20.1898 22.8494 20.561 22.7641 20.9848L21.4455 27.5376C21.3567 27.9787 21.7647 28.3558 22.1891 28.225L24.9304 27.3797C25.3554 27.2488 25.7637 27.627 25.6738 28.0684L23.5783 38.3614C23.4472 39.0052 24.2911 39.3563 24.643 38.8043L24.8781 38.4357L37.8678 12.1274C38.0853 11.6869 37.7102 11.1846 37.2335 11.278L32.6651 12.1728C32.2358 12.2568 31.8705 11.851 31.9917 11.4248L34.9734 0.934692C35.0947 0.507712 34.7281 0.101618 34.2984 0.18707Z" fill="url(#paint1_linear_21_4)"/>
</g>
<defs>
<linearGradient id="paint0_linear_21_4" x1="0.702476" y1="3.92075" x2="28.027" y2="40.4866" gradientUnits="userSpaceOnUse">
<stop stop-color="#41D1FF"/>
<stop offset="1" stop-color="#BD34FE"/>
</linearGradient>
<linearGradient id="paint1_linear_21_4" x1="22.7884" y1="1.04772" x2="27.7802" y2="34.7896" gradientUnits="userSpaceOnUse">
<stop stop-color="#FFEA83"/>
<stop offset="0.0833333" stop-color="#FFDD35"/>
<stop offset="1" stop-color="#FFA800"/>
</linearGradient>
<clipPath id="clip0_21_4">
<rect width="48" height="48" fill="white"/>
</clipPath>
</defs>
</svg>
