<svg width="195" height="48" viewBox="0 0 195 48" fill="none" xmlns="http://www.w3.org/2000/svg">
<g clip-path="url(#clip0_30_6138)">
<rect x="0.372559" width="48" height="48" rx="8" fill="url(#paint0_linear_30_6138)"/>
<rect x="0.372559" width="48" height="48" rx="8" fill="black"/>
<rect x="32.3726" y="8" width="8" height="8" rx="2" fill="white"/>
<rect x="8.37256" y="32" width="8" height="8" rx="2" fill="white"/>
<path fill-rule="evenodd" clip-rule="evenodd" d="M9.37256 16C9.37256 13.2386 11.6111 11 14.3726 11H32.3726V13H14.3726C12.7157 13 11.3726 14.3431 11.3726 16V20C11.3726 21.6569 12.7157 23 14.3726 23H34.3726C37.134 23 39.3726 25.2386 39.3726 28V32C39.3726 34.7614 37.134 37 34.3726 37H16.3726V35H34.3726C36.0294 35 37.3726 33.6569 37.3726 32V28C37.3726 26.3431 36.0294 25 34.3726 25H14.3726C11.6111 25 9.37256 22.7614 9.37256 20V16Z" fill="white"/>
</g>
<path d="M192.291 16.608C190.979 16.608 189.987 15.584 189.987 14.272C189.987 12.992 190.979 11.968 192.291 11.968C193.571 11.968 194.627 12.992 194.627 14.272C194.627 15.584 193.571 16.608 192.291 16.608ZM190.339 35.648V19.84H194.243V35.648H190.339Z" fill="#1C1C1C"/>
<path d="M177.634 36.064C174.242 36.064 172.226 34.08 172.226 31.136C172.226 28.064 174.53 26.4 178.082 26.112L182.594 25.76V25.408C182.594 23.232 181.25 22.4 179.33 22.4C177.186 22.4 175.938 23.392 175.97 25.024H172.642C172.61 21.632 175.426 19.36 179.522 19.36C183.97 19.36 186.402 21.856 186.402 26.048V35.648H182.978L182.69 33.312C182.018 34.944 180.13 36.064 177.634 36.064ZM178.914 33.12C180.578 33.12 182.626 32.192 182.626 29.248V28.416L179.33 28.704C177.026 28.928 176.194 29.696 176.194 30.976C176.194 32.352 177.154 33.12 178.914 33.12Z" fill="#1C1C1C"/>
<path d="M166.242 36.16C164.834 36.16 163.65 35.008 163.65 33.632C163.65 32.224 164.834 31.04 166.242 31.04C167.65 31.04 168.834 32.224 168.834 33.632C168.834 35.008 167.65 36.16 166.242 36.16Z" fill="#1C1C1C"/>
<path d="M158.666 16.608C157.354 16.608 156.362 15.584 156.362 14.272C156.362 12.992 157.354 11.968 158.666 11.968C159.946 11.968 161.002 12.992 161.002 14.272C161.002 15.584 159.946 16.608 158.666 16.608ZM156.714 35.648V19.84H160.618V35.648H156.714Z" fill="#1C1C1C"/>
<path d="M141.465 35.648H137.561V19.84H141.177L141.497 21.888C142.521 20.256 144.409 19.36 146.553 19.36C150.681 19.36 152.537 21.984 152.537 25.92V35.648H148.665V26.848C148.665 23.456 146.681 22.912 145.337 22.912C143.641 22.912 141.465 23.84 141.465 27.136V35.648Z" fill="#1C1C1C"/>
<path d="M117.877 27.712C117.877 22.848 121.141 19.392 126.101 19.392C131.061 19.392 134.325 22.848 134.325 27.712C134.325 32.576 131.061 36.032 126.101 36.032C121.141 36.032 117.877 32.576 117.877 27.712ZM121.813 27.712C121.813 30.528 123.509 32.544 126.101 32.544C128.693 32.544 130.389 30.528 130.389 27.712C130.389 24.864 128.693 22.88 126.101 22.88C123.509 22.88 121.813 24.864 121.813 27.712Z" fill="#1C1C1C"/>
<path d="M107.237 19.84H109.477V17.92C109.477 13.632 111.781 11.84 115.205 11.84C115.813 11.84 116.549 11.872 117.221 12V15.328H115.845C113.861 15.328 113.413 16.352 113.413 17.92V19.84H117.157V23.072H113.413V35.648H109.509L109.477 23.072H107.237V19.84Z" fill="#1C1C1C"/>
<path d="M84.2775 35.648H80.3735V19.84H83.9575L84.1495 21.632C85.0775 20.224 86.7415 19.36 88.5975 19.36C91.2215 19.36 92.9495 20.512 93.8135 22.368C94.5815 20.512 96.4695 19.36 98.8695 19.36C102.71 19.36 104.726 21.664 104.726 25.312V35.648H100.95V26.208C100.95 23.968 99.7335 22.784 97.8455 22.784C95.9895 22.784 94.5175 24 94.5175 26.592V35.648H90.7095V26.208C90.7095 23.968 89.4935 22.784 87.6375 22.784C85.7815 22.784 84.2775 24 84.2775 26.56V35.648Z" fill="#1C1C1C"/>
<path d="M74.0413 16.608C72.7293 16.608 71.7373 15.584 71.7373 14.272C71.7373 12.992 72.7293 11.968 74.0413 11.968C75.3213 11.968 76.3773 12.992 76.3773 14.272C76.3773 15.584 75.3213 16.608 74.0413 16.608ZM72.0893 35.648V19.84H75.9933V35.648H72.0893Z" fill="#1C1C1C"/>
<path d="M56.3726 30.912H59.9246C59.9246 32.288 60.9166 33.088 62.6446 33.088C64.0846 33.088 65.2686 32.512 65.2686 31.264C65.2686 30.368 64.6286 29.888 63.6046 29.6L60.8526 28.896C57.8126 28.096 56.6286 26.4 56.6286 24.352C56.6286 21.344 59.1566 19.36 62.5486 19.36C65.9726 19.36 68.3086 21.344 68.4366 24.48H64.8846C64.8846 23.104 63.9246 22.272 62.4526 22.272C61.0446 22.272 60.1806 23.04 60.1806 24.128C60.1806 25.152 60.9806 25.568 62.1646 25.888L64.9486 26.56C67.5406 27.2 68.9486 28.736 68.9486 31.008C68.9486 34.08 66.4206 36.064 62.7086 36.064C58.9326 36.064 56.5006 34.048 56.3726 30.912Z" fill="#1C1C1C"/>
<defs>
<linearGradient id="paint0_linear_30_6138" x1="0.372561" y1="2.86102e-06" x2="48.3726" y2="48" gradientUnits="userSpaceOnUse">
<stop stop-color="#666666"/>
<stop offset="1"/>
</linearGradient>
<clipPath id="clip0_30_6138">
<rect width="48" height="48" fill="white" transform="translate(0.372559)"/>
</clipPath>
</defs>
</svg>
